<?xml version="1.0" encoding="utf-8"?>
<!-- Generator: Adobe Illustrator 16.0.0, SVG Export Plug-In . SVG Version: 6.00 Build 0)  -->
<!DOCTYPE svg PUBLIC "-//W3C//DTD SVG 1.1//EN" "http://www.w3.org/Graphics/SVG/1.1/DTD/svg11.dtd">
<svg version="1.1" id="Layer_1" xmlns="http://www.w3.org/2000/svg" xmlns:xlink="http://www.w3.org/1999/xlink" x="0px" y="0px"
	 width="34.768px" height="54.408px" viewBox="0 0 34.768 54.408" enable-background="new 0 0 34.768 54.408" xml:space="preserve">
<g id="Logo_4_">
	<path fill="none" stroke="#000000" stroke-width="1.5" stroke-linecap="round" stroke-linejoin="round" stroke-miterlimit="10" d="
		M26.15,32.635l-9.97-12.444h-9v12.443 M1,20.171V1l11.175,14.055 M1,32.635V20.171 M7.18,8.772v6.282h11.924
		c2.726,0,4.679-0.303,5.853-0.913c1.176-0.607,1.764-1.797,1.764-3.567c0-1.741-0.588-2.916-1.764-3.524
		c-1.174-0.61-3.127-0.916-6.646-0.916H12.34"/>
	<g>
		
			<path fill="none" stroke="#000000" stroke-width="1.5" stroke-linecap="round" stroke-linejoin="round" stroke-miterlimit="10" d="
			M19.408,15.054L7.874,1h12.144c2.029,0,3.812,0.138,5.353,0.413c1.537,0.276,2.862,0.762,3.981,1.458
			c1.115,0.695,1.985,1.661,2.609,2.894c0.623,1.234,0.937,2.792,0.937,4.678c0,2.785-0.855,4.999-2.566,6.637
			c-1.711,1.64-4.595,2.531-7.06,2.676l10.496,12.88"/>
	</g>
</g>
</svg>
