<?xml version="1.0" encoding="utf-8"?>
<!-- Generator: Adobe Illustrator 16.0.0, SVG Export Plug-In . SVG Version: 6.00 Build 0)  -->
<!DOCTYPE svg PUBLIC "-//W3C//DTD SVG 1.1//EN" "http://www.w3.org/Graphics/SVG/1.1/DTD/svg11.dtd">
<svg version="1.1" id="Layer_1" xmlns="http://www.w3.org/2000/svg" xmlns:xlink="http://www.w3.org/1999/xlink" x="0px" y="0px"
	 width="34.7675781px" height="33.6347656px" viewBox="0 0 34.7675781 33.6347656"
	 enable-background="new 0 0 34.7675781 33.6347656" xml:space="preserve">
<g id="Logo_4_">
	<path fill="none" stroke="#404041" stroke-width="2" stroke-linecap="round" stroke-linejoin="round" d="M26.1503906,32.6347656
		l-9.9707031-12.4433594h-9v12.4433594 M1,20.1708984V1l11.1748047,14.0546875 M1,32.6347656V20.1708984 M7.1796875,8.7724609
		v6.2822266h11.9238281c2.7246094,0,4.6777344-0.3032227,5.8515625-0.9130859
		c1.1757812-0.6083984,1.7636719-1.796875,1.7636719-3.5678711c0-1.7407227-0.5878906-2.9160156-1.7636719-3.5239258
		C23.78125,6.4394531,21.828125,6.1342773,18.3105469,6.1342773h-5.9707031"/>
	<g>
		<path fill="none" stroke="#404041" stroke-width="2" stroke-linecap="round" stroke-linejoin="round" d="M19.4082031,15.0537109
			L7.8740234,1h12.1435547c2.0292969,0,3.8125,0.1376953,5.3515625,0.4130859
			c1.5371094,0.2773438,2.8632812,0.7617188,3.9824219,1.4584961c1.1152344,0.6958008,1.9853516,1.6611328,2.609375,2.8935547
			c0.6230469,1.2338867,0.9365234,2.7919922,0.9365234,4.6782227c0,2.7851562-0.8564453,4.9985352-2.5673828,6.6357422
			c-1.7109375,1.6396484-4.59375,2.5322266-7.0585938,2.6757812l10.4960938,12.8798828"/>
	</g>
</g>
</svg>
